<?xml version="1.0" encoding="utf-8"?>
<!-- Generator: Adobe Illustrator 24.2.1, SVG Export Plug-In . SVG Version: 6.00 Build 0)  -->
<svg version="1.1" id="Layer_1" xmlns="http://www.w3.org/2000/svg" xmlns:xlink="http://www.w3.org/1999/xlink" x="0px" y="0px"
	 viewBox="0 0 595.28 841.89" style="enable-background:new 0 0 595.28 841.89;" xml:space="preserve">
<style type="text/css">
	.st0{fill:none;stroke:#000000;stroke-miterlimit:10;}
	.st1{stroke:#000000;stroke-miterlimit:10;}
	.st2{fill:none;stroke:#000000;stroke-miterlimit:10;}
	.st3{stroke:#FFFFFF;stroke-miterlimit:10;}
	.st4{fill:#FFFFFF;stroke:#FFFFFF;stroke-width:0.5;stroke-miterlimit:10;}
</style>
<path class="st0" d="M218.43,195.66c-2.74,6.78-7.27,15.77-14.81,24.98c-12.13,14.81-17.09,17.34-19.23,17.89
	c-3.47,0.9-5.7,0.5-9.97,2.27c-5.82,2.41-9.68,6.44-12.05,9.53c-4.39,9.3-8.78,18.6-13.17,27.91c-1.77,10.79-4.18,25.4-6.87,41.22
	c-2.41,14.14-3.62,21.24-4.01,22.59c-0.57,1.95-2.11,6.98-2.68,13.9c-0.22,2.66-0.23,4.86-0.21,6.32
	c2.02,40.88,3.62,71.76,4.38,85.97c1.04,19.37,2,35.62,2.18,38.58c0.1,1.68,0.2,3.28,0.2,3.28c0.38,6.35,0.72,11.69,0.98,15.68
	c7.05,22.4,14.1,44.81,21.16,67.21l60.28,66.33c9.17,6.67,22.23,14.77,39.15,21.3c16.75,6.47,31.81,9.27,43.08,10.54
	c14.9-1.77,29.81-3.54,44.71-5.31c8.79-4.94,19.93-12.38,31.03-23.34c8.43-8.32,14.69-16.54,19.27-23.54
	c11.44-17.1,22.89-34.2,34.33-51.29l21.56-49.52l12.77-55.99l7.98-66.05v-46.87c-0.65-10.59-1.94-22.3-4.2-34.89
	c-1.92-10.66-3.18-18.15-6.34-27.72c-4.02-12.13-9.01-21.63-12.88-28.1c-9.61-7.27-22.12-18.34-33.84-34.14
	c-12.79-17.25-19.9-33.76-23.93-45.59c-7.79-10.26-15.58-20.53-23.37-30.79c-3.91-3.3-9.68-7.62-17.3-11.56
	c-2.21-1.14-9.48-4.79-22.72-8.24c-18.97-4.95-35.13-5.59-53.14-6.2c-6.72-0.23-12.21-0.25-15.76-0.23
	c-0.67,2.07-1.82,4.78-3.85,7.57c-3.67,5.05-7.73,5.85-11.25,9.05c-2.87,2.62-5.97,7.24-6.73,16.03
	c-3.64,6.54-7.48,13.21-11.54,19.99C227.24,181.78,222.82,188.85,218.43,195.66z"/>
<path class="st1" d="M287.65,270.95c1.32-2.9-0.25-6.13-0.92-7.52c-4.66-9.62-20.18-11.98-23.03-12.38
	c-5.22,0.49-10.45,0.99-15.67,1.48c-4.03,0.38-8.05,0.76-12.08,1.14c-5.15,0.49-10.31,0.97-15.46,1.46
	c-2.91,2.16-7.07,5.35-11.92,9.43c-4.86,4.09-7.4,6.23-10,9.05c-3.1,3.37-7.35,8.88-10.71,17.23c10.91-3.24,21.82-6.49,32.73-9.73
	l24.75-5.31c0,0,4.41-0.77,4.41-0.77s-1.47,0.26-4.41,0.77c1.72,0.2,4.52,0.52,7.97,0.82c14.34,1.26,21.1,0.7,27.17-1.13
	C285.02,274.14,286.83,272.76,287.65,270.95z"/>
<path class="st0" d="M359.51,333.3c0.75-2.75,2.53-7.82,6.91-12.72c5.13-5.73,11.04-8.12,13.84-9.05c3.25-0.47,7.01-0.79,11.19-0.78
	c5.45,0.01,10.24,0.6,14.19,1.35c3.23,0.68,6.75,1.58,10.48,2.75c3.98,1.26,7.58,2.64,10.78,4.02c2.55,3.34,5.1,6.67,7.65,10.01"/>
<path class="st0" d="M375.65,343.49c7.59,0.99,13.56,0.54,16.15,0.28c5.33-0.53,9.99-1.62,13.84-2.83
	c1.99,0.03,6.96-0.16,11.82-3.39c2.92-1.94,4.7-4.25,5.68-5.79c-1.81-1.78-3.89-3.65-6.26-5.53c-2.82-2.25-5.56-4.11-8.08-5.66
	c-3.56-0.66-7.11-1.32-10.67-1.98c-4.23-0.09-8.46-0.19-12.69-0.28c-2.53,0.43-10.94,2.18-17.3,9.62
	c-4.09,4.78-5.51,9.78-6.06,12.45C365.72,341.59,370.29,342.79,375.65,343.49z"/>
<path class="st0" d="M282.86,326.76c-1.4-2.4-3.08-4.96-5.08-7.6c-3.41-4.5-6.92-8.12-10.09-10.97c-5.74-1.5-11.47-3-17.21-4.5
	c-5.17,0.32-10.35,0.64-15.52,0.96c-3.63,1.76-7.9,4.17-12.36,7.49c-4.14,3.07-7.46,6.19-10.05,8.94
	c9.07,2.78,18.14,5.55,27.21,8.33l13.57,2.65c2.78-0.01,5.83-0.14,9.08-0.46c3.65-0.36,7-0.89,10-1.51
	C275.89,328.98,279.38,327.87,282.86,326.76z"/>
<path class="st0" d="M281.82,319.85L281.82,319.85c-1.12-2.18-3.07-5.33-6.38-8.31c-4.86-4.37-10.05-6.05-12.78-6.73
	c-5.71-2.13-10.66-3.04-14.14-3.46c-12.67-1.53-23.04,1.3-28.98,3.46c-3.47,1.26-6.16,2.71-7.94,3.71"/>
<path class="st0" d="M312.8,502.21h13.97l32.73,7.07l19.96,5.31l-10.38-9.73c-7.55-4.22-15.11-8.44-22.66-12.67
	c-2.25-0.93-5.65-2.4-9.71-4.43c-4.37-2.18-5.63-3.07-7.88-3.58c-2.68-0.61-6.74-0.67-12.4,2.17c-2.09-1.6-6.61-4.52-12.5-4.34
	c-1.11,0.03-2.14,0.18-3.08,0.38c-7.8,1.5-14.24,2.92-18.9,4c-9.79,2.27-14.82,3.41-20.84,5.7c-5.77,2.2-10.77,4.65-14.98,7.02
	c10.48-0.48,21.98-0.55,34.34,0.06C292.12,499.75,302.93,500.84,312.8,502.21z"/>
<path class="st0" d="M381.13,515.49c-8.45,2.35-16.91,4.71-25.36,7.06c-5.39,1.75-10.78,3.5-16.17,5.24
	c-3.85,0.94-7.69,1.89-11.54,2.83c-2.1,0.43-4.82,0.77-7.98,0.61c-5.13-0.25-9.18-1.68-11.73-2.83c-1.41,0.64-3.36,1.34-5.77,1.7
	c-3.44,0.51-6.32,0.09-8.12-0.33c-4.13-1.37-8.27-2.73-12.4-4.1c-2.14-0.52-4.91-1.44-7.86-3.11c-4.57-2.59-7.5-5.82-9.15-7.97
	c-7.16-4.82-14.33-9.65-21.49-14.47c0.86-0.33,1.72-0.67,2.58-1"/>
<path class="st0" d="M126.38,419.08c-2.18-3.73-2.08-8.25,0.28-11.56c2.66-3.74,7-4.28,7.7-4.36"/>
<path class="st0" d="M129.97,448.27l-11.58-23.88c0,0-10.38-16.8-11.98-21.22s0-19.46,0-19.46l3.19-11.5"/>
<path class="st0" d="M462.07,499.09c6,0.01,11.99,0.02,17.99,0.03l14.37-19.01l16.77-22.11l7.19-46.87l-4.79-21.22l-9.22-9.73
	c-8.63,3.33-17.26,6.67-25.89,10c-0.69,7.72-1.39,15.45-2.08,23.17c4.36-5.4,20.46-24.81,27.3-21.48c3.2,1.56,4.07,7.94,4.61,11.88
	c0.68,4.93,0,7.85-0.58,14.71c-0.68,8.13-0.44,12.48-0.58,15.28c-0.36,7.23-4.02,18.64-19.12,36.64"/>
<path class="st1" d="M452.8,309.75l-14.37-27.42l-16.77-11.5l-16.77-3.54c-7.99-0.61-15.98-1.22-23.97-1.84
	c-2.36-0.07-6.24,0.11-10.67,1.7c-4.42,1.59-7.5,3.9-9.27,5.45c3.6,3.94,7.2,7.87,10.8,11.81c5.38,1.63,10.77,3.27,16.15,4.9
	c5.13,0.38,10.25,0.75,15.38,1.13c8.6,1.72,15.16,4.12,19.61,6.04c5.56,2.38,21.7,10.66,16.29,7.96L452.8,309.75z"/>
<path class="st0" d="M142.41,493.79c-2.68-3.38-5.36-6.77-8.05-10.15l-14.06-10.61L103.23,435l-5.59-29.18c0-10.59,0-21.18,0-31.77
	c-0.03-1.54,0.11-5.23,2.73-7.92c2.46-2.53,5.8-2.84,10.43-3.25c2.48-0.22,6.22-0.31,10.76,0.57c4.71,4.86,9.42,9.71,14.13,14.57
	c0.24-1.79,0.48-3.59,0.71-5.39c-1.61-2.76-6.39-10.04-15.66-13.33c-3.25-1.16-6.25-1.54-8.63-1.61c-0.21,0.08-0.45,0.14-0.7,0.19
	c-1.63,0.29-3.02-0.49-3.61-0.88c-0.38-0.06-0.96-0.19-1.54-0.57c-4.32-2.81-3.45-12.79-3.27-14.71c0.12-1.25,0.08-1.88-0.01-3.13
	c-0.14-1.92-0.22-2.89-0.85-3.4c-1-0.81-2.22,0.34-4.08,0.04c-3.09-0.5-4.75-4.49-5.06-5.3c-1.41-3.69-0.01-6.99,0.36-7.78
	c1.27-2.74,3.51-3.87,4.27-4.75c5.49-6.4-1.35-20.91-7.19-42.45c-2.61-9.62-1.93-21.83-0.52-34.24c0.15-1.35,0.31-2.54,0.52-4.67
	c1.07-11.29,0.6-20.42,0-26.53c0.5-23.11,5.98-41.01,10.38-52.18c5.15-13.08,17.01-42.1,47.25-62.79
	c5.86-4.01,17.22-8.49,39.78-17.69c4.26-1.74,10.84-4.35,19.75-4.58c5.92-0.15,10.79,0.8,14.03,1.64
	c11.36,6.28,22.72,12.57,34.08,18.85c8.73-17.42,18.1-26.02,23.6-30.17c1.44-1.09,3.9-2.84,6.54-4.59
	c9.63-6.41,18.49-10.79,22.98-12.99c0,0,0,0,0,0c9.47-2.24,20.05-4.23,31.62-5.61c17.44-2.08,33.21-2.32,46.72-1.7
	c11.15,4.15,22.3,8.3,33.45,12.45c5.38,4.65,11.6,10.91,17.5,19.05c9.81,13.56,14.66,26.73,17.17,35.94
	c9.58,13.56,19.16,27.12,28.74,40.68c9.72,18.37,19.44,36.73,29.16,55.1c9.16,11.22,11.87,20.91,12.11,28.57
	c0.11,3.38-0.36,3.26-0.17,7.1c0.61,12.14,5.48,16.61,6.8,28.27c0.29,2.5,0.17,5.29,0.01,10.85c-0.11,3.77-0.33,10.56-1.54,19.23
	c-1.14,8.13-1.69,7.46-1.66,10.95c0.07,8.09,3.11,10.63,0.89,14.32c-0.86,1.43-3.83,5.24-4.61,7.73c-0.12,0.39-0.28,0.89-0.31,1.57
	c-0.06,1.53,0.6,1.99,0.45,3.09c-0.16,1.18-1.08,1.96-1.44,2.26c-1.26,1.07-2.2,0.67-3.28,1.26c-2.01,1.09-1.38,3.84-2.92,8.78
	c-0.77,2.47-1.06,2.14-2.31,5.47c-1.62,4.33-2.27,7.75-2.5,8.86c-0.49,2.35-2.38,7.81-8.37,20.93"/>
<path class="st0" d="M175.15,584.89c2.41,27.1,3.03,48.44,3.13,63.24c0.07,10.9,0,38.03,0,38.03l-1.16,27.42
	c-4.96,13.27-4.27,23.08-2.22,30.07c15.52,52.9,144.53,64.84,227.96,37.38c9.9-3.26,50.01-16.46,50.65-35.54
	c0.26-7.52-5.83-9.62-13.27-23.2c-9.46-17.28-10.22-33.26-11.32-56.6c-0.17-3.54,1.15-19.1,1.59-50.27c0.25-17.4,0-39.66,0-39.83
	l0,0"/>
<path class="st2" d="M231.45,481.45"/>
<path class="st0" d="M296.91,273.34c3.52,8.08,11.27,27.7,10.96,48.09c-0.05,3.07-0.34,10.05-1.73,18.67
	c-1.33,8.22-3.11,14.48-4.9,20.37c-7.72,25.35-11.58,38.03-16.92,47.43c-5.91,10.42-11.41,16.53-10.19,25.84
	c0.19,1.45,1.16,8.85,6.06,11.03c3.42,1.53,8.66,0.45,12.21-0.28c3.42-0.7,4.63-1.43,6.54-0.75c2.7,0.96,2.49,3.22,5.38,5.66
	c2.61,2.2,6.95,3.86,10.77,3.02c3.92-0.87,4.29-3.71,8.65-4.24c1.42-0.17,2.77,0.07,5.48,0.57c5.1,0.93,6.4,1.94,8.65,2.26
	c5.01,0.71,10.32-2.62,12.59-5.37c5.35-6.5,0.58-18.07-1.63-24.61c-3.99-11.8-7.16-29.45-2.98-54.6"/>
<path class="st2" d="M331.6,485.46"/>
<path class="st2" d="M261.12,492.1"/>
<path class="st2" d="M265.08,277.55"/>
<polyline class="st0" points="494.47,424.68 497.93,436 490.23,452.63 481.78,459.19 "/>
<path class="st2" d="M412.56,189.88"/>
<g id="XMLID_1_">
	<g>
		<path d="M529.88,314.86c1.86,6.84-1.98,15.04-4.43,14.98c-2.49-0.05-1.42-8.61-8.34-18.17c-4.18-5.76-5.61-4.09-11.25-11.17
			c-5.2-6.53-4.61-8.75-10.83-16.07c-1.12-1.33-3.78-4.39-7.66-7.87c-2.65-2.36-5.34-4.48-7.97-6.37c0,0,0,0-0.01,0
			c-18.47-10.38-31-20.74-36.18-26.34c-4.42-4.76-8.33-10.04-8.33-10.04s-2.61-3.5-4.81-6.98c-8.69-13.68-5.62-18.11-11.93-24.71
			c-5.56-5.8-10.08-4.61-16-12.41c-2.4-3.16-3.45-5.98-4.04-6.89c-18.72-29.45-39.01-43.21-37.43-45c1.02-1.17,14.41,10.51,39.57,26
			c20.8,12.81,32.77,17.85,34.44,28.49c0.51,3.21,0.5,9.65,4.04,18.28c0.33,0.82,1.57,4.15,4.14,8.09
			c7.34,11.26,18.4,19.64,21.02,21.38c0.98,0.65,4.61,3.02,9.37,6.57c3.7,2.76,6.48,5.03,8.77,7.03
			c11.17,9.68,13.46,11.69,14.57,12.98c0.39,0.46,1.03,1.36,2.06,2.54c2.65,3.04,4.73,4.66,6.32,6.06c3.78,3.34,6.11,6.6,9.05,10.74
			c2.33,3.27,3.91,5.99,4.49,7.01c0.72,1.24,1.35,2.46,2.58,4.83c1.7,3.29,2.73,5.34,3.67,7.19
			C529.44,314.25,529.48,313.39,529.88,314.86z"/>
	</g>
	<g>
		<path class="st0" d="M360.66,137.84c-1.58,1.78,18.71,15.54,37.43,45c0.59,0.91,1.65,3.73,4.04,6.89c5.92,7.8,10.44,6.61,16,12.41
			c6.31,6.6,3.24,11.02,11.93,24.71c2.2,3.48,4.81,6.98,4.81,6.98s3.91,5.27,8.33,10.04c5.18,5.6,17.72,15.95,36.18,26.34
			c0.01,0,0.01,0,0.01,0c2.62,1.89,5.32,4,7.97,6.37c3.88,3.48,6.53,6.53,7.66,7.87c6.23,7.32,5.64,9.54,10.83,16.07
			c5.64,7.07,7.07,5.4,11.25,11.17c6.92,9.56,5.85,18.12,8.34,18.17c2.45,0.06,6.29-8.14,4.43-14.98c-0.4-1.46-0.44-0.6-5.12-9.84
			c-0.94-1.85-1.97-3.9-3.67-7.19c-1.23-2.36-1.86-3.58-2.58-4.83c-0.58-1.01-2.16-3.73-4.49-7.01c-2.95-4.15-5.28-7.41-9.05-10.74
			c-1.59-1.4-3.67-3.02-6.32-6.06c-1.03-1.18-1.67-2.08-2.06-2.54c-1.11-1.28-3.4-3.3-14.57-12.98c-2.29-2-5.08-4.27-8.77-7.03
			c-4.77-3.56-8.4-5.92-9.37-6.57c-2.62-1.75-13.69-10.13-21.02-21.38c-2.57-3.94-3.8-7.26-4.14-8.09
			c-3.55-8.62-3.54-15.07-4.04-18.28c-1.67-10.64-13.65-15.68-34.44-28.49C375.07,148.35,361.68,136.67,360.66,137.84z"/>
	</g>
</g>
<path class="st1" d="M384.89,162.47c0,0-22.9-36.23-51.92-39.35c-20.44-2.19-31.35-2.11-31.35-2.11c-4.54-0.29-9.09-0.55-13.64-0.72
	c-6.72-0.26-12.11-2.26-12.11-2.26c-7.46-1.85-10.66-3.5-13.46-1.7c-0.11,0.07-2.46,1.63-2.29,3.63c0.14,1.69,2.01,2.75,2.48,3.02
	c3.36,1.91,6.76,0.27,12.26-0.42c1.29-0.16,4.41,0.47,10.62,0.09c11.63-0.71,27.3,0.62,38.84,2.45c11.29,1.79,19.38,5.53,24.03,7.69
	C372.79,144.12,384.89,162.46,384.89,162.47z"/>
<path class="st1" d="M259.42,116.19c-1.1-3.51-0.35-6.5,0.08-8.09c0.33-1.23,1.12-4.2,3.42-6.57c3.15-3.25,7.52-3.72,10.25-4.06
	c16.33-2.01,13.06-4.15,25.38-4.53c7.98-0.24,14.02,0.34,25.76,1.51c15.02,1.5,22.53,2.25,28.46,4.15
	c5.05,1.62,15.63,5.14,25.38,13.96c7.62,6.89,6.32,9.43,17.69,24.14c9.73,12.59,14.5,18.96,20,21.5c12.31,5.69,22.71,0.41,29.9,8.49
	c2.06,2.32,5.71,7.82,6.34,8.77c1.51,2.28,3.94,5.93,5.48,9.05c3.55,7.18,2.06,10.79,3.75,18.95c2.79,13.5,10.67,21.85,9.69,22.48
	c-0.51,0.32-2.57-1.9-6.07-5.66c-1.46-1.57-3.22-3.47-5.25-6.26c-1.13-1.54-2.93-4.13-4.61-7.36c-3.01-5.77-2.44-7.22-4.71-12.14
	c-3.66-7.94-9.02-12.63-10.29-13.69c-3.37-2.82-6.58-4.44-9.61-5.94c-7.39-3.67-11.67-4.25-16.06-5.83
	c-12.19-4.4-19.34-14.43-23.65-20.49c-7.94-11.16-3.51-12.51-10.77-21.77c-8.58-10.97-20.63-16.54-28.38-20.12
	c-4.17-1.93-7.65-3.52-12.7-4.7c-8.07-1.89-11.6-0.75-25.54-0.15c-13.2,0.57-24.92,0.19-35.77,2.61c-1.87,0.42-3.99,0.58-6.1,2.02
	c-6.8,4.61-5.61,15.08-8.31,15.25C261.23,121.83,259.53,116.53,259.42,116.19z"/>
<path class="st0" d="M467.54,199.73c4.24,7.66,8.99,13.08,12.51,16.56c1.4,1.38,5.3,5.12,11.15,9.05c7.68,5.15,11.28,5.65,15.38,8.3
	c4.91,3.17,10.78,9.6,13.69,24.17"/>
<path class="st0" d="M466.13,162.02c2.98,4.64,7.44,11.66,12.77,20.32c9.15,14.86,10.85,18.29,15,23.01
	c4.7,5.35,12.5,12.29,25.57,17.73"/>
<path class="st1" d="M530.75,258.41c0.76,3.39,1.56,8.16,1.68,13.97c0.05,2.48,0.1,5.22-0.54,5.34c-1.06,0.21-2.15-7.02-6.7-14.42
	c-1.96-3.18-5.16-6.27-11.56-12.43c-7.59-7.31-11.28-11.13-17.04-14.58c-5.11-3.06-6.57-2.97-11.05-6.24
	c-2.65-1.94-8.76-6.49-13.18-14.51c-3.6-6.53-4.52-12.84-5.02-14.91c0,0,0,0,0,0c-2.63-14.43,3.58-18.87,0.41-32.24
	c-1.89-7.94-3.8-15.99-10.77-21.88c-5.06-4.27-7.03-2.54-18.07-7.92c-2.86-1.39-9.12-5.6-21.53-13.96
	c-11.64-7.84-13.57-9.29-15.77-12.45c-4.46-6.42-2.58-9.21-6.15-14.71c-1.49-2.3-5.64-7.68-24.99-13.2
	c-7.7-2.2-17.02-4.18-33.45-5.66c-15.88-1.42-27.36-2.15-39.61-0.75c-7.24,0.82-13.15,2.1-18.46,6.04c-4.05,3-8.16,7.85-8.84,8.68
	c-3.78,4.51-2.63,4.44-5.38,7.17l0,0c-6.46,5.38-5.91,14.76-6.92,14.71c-0.46-0.02-0.75-2.03-1.35-6.03
	c-0.21-1.45-0.36-2.45-0.5-3.86c-0.47-4.94-0.35-10.3-0.23-11.8c0.54-6.64,7.65-20.32,21.54-28.53c9.69-5.74,18.3-6.18,32.93-7.01
	c13.72-0.78,24.53,0.99,46.14,4.53c22.2,3.63,29.05,6.37,35.18,10.47c4.6,3.07,10.7,7.15,14.71,14.71c3.44,6.49,1.78,8.85,5.77,13.3
	c2.51,2.8,6.96,5.17,15.86,9.9c2.02,1.08,4.08,2.1,6.9,3.94c1.24,0.81,2.28,1.54,4.17,2.7c1.9,1.16,3.39,1.97,4.21,2.41
	c11.96,6.44,13.47,6.26,16.44,9.05c2.4,2.26,1.02,2.01,8.65,13.01c0.83,1.19,2.45,3.53,4.48,6.27c5.02,6.76,7.82,9.62,10.22,12.68
	c6.04,7.68,8.61,15.36,9.81,18.95c3.87,11.57,1.12,14.6,6.06,23.76c1.5,2.79,3.54,6.38,7.5,9.9c1.86,1.65,3.38,2.86,4.7,3.82
	c5.61,4.08,7.27,5.44,8.47,6.46c1.76,1.49,4.45,5.35,5.98,16.84"/>
<path class="st1" d="M285.86,57.99c0.01,0.02,0.76-0.25,2.24-0.8c0.91-0.34,2.16-0.79,3.86-1.39c1.28-0.45,8.4-2.95,17.2-5.43
	c2.38-0.67,6.18-1.73,11.27-2.92c6.27-1.46,10.29-2.38,15.81-2.97c4.15-0.44,7.51-0.58,10.38-0.58c0,0,5.42-0.14,10.3,0.1
	c6.4,0.32,12.68,1.84,22.38,4.07c16.78,3.84,25.21,5.72,29.8,10.56c5.26,5.54,5.02,10.63,13.07,18.48c3.77,3.67,8.08,7.17,8.08,7.17
	c2.52,1.49,6.02,3.96,9.17,7.85c2.52,3.11,2.55,4.33,4.86,7.24c3.85,4.84,6.86,5.35,11.73,9.24c7.84,6.26,10.18,13.02,10.73,12.72
	c1.06-0.57-11.1-23.41-23.36-44.18c-8.32-14.1-13.8-21.77-23.28-27.2c-2.09-1.2-5.78-2.71-13.16-5.74
	c-13.82-5.67-18.02-6.29-19.76-6.51c-2.6-0.32-6.25-0.35-13.56-0.28c-1.75,0.02-7.24,0.06-11.68,0.24
	c-12.85,0.52-23.3,2.01-35.4,3.75c-10.38,1.5-15.63,2.27-18.39,3.22C295.3,49.06,285.61,57.59,285.86,57.99z"/>
<path class="st1" d="M261.34,117.23c-0.23-1.1,9.69-4.18,17.12-5.99c6.3-1.53,10.92-2.19,20.19-3.39c9.65-1.26,15.01-1.93,22.5-1.7
	c4.38,0.14,6.57,0.21,9.52,0.85c5.67,1.23,7.42,3,17.88,8.2c9.42,4.68,9.5,4,12.4,6.22c4.15,3.18,6.76,6.71,10.38,11.6
	c4.28,5.79,8.19,10.11,8.94,11.03c10.7,13.11,17.93,18.48,17.39,19.1c-0.8,0.93-19.83-7.96-31.38-24.63
	c-2.12-3.06-4.75-7.48-10.26-11.99c-5.98-4.89-12.04-7.17-14.88-8.21c-5.44-2-9.66-2.62-15.91-3.5c-5.82-0.82-11.96-1.69-19.66-1.38
	c-10.51,0.42-13.54,1.8-32.6,3.5C262.56,117.87,261.41,117.58,261.34,117.23z"/>
<ellipse class="st1" cx="249.42" cy="318.1" rx="12.98" ry="12.73"/>
<ellipse class="st1" cx="393.26" cy="330.61" rx="12.98" ry="12.73"/>
<path class="st1" d="M255.68,101.05c-2.63,2.47-11.68-6.48-31.34-14.52c0,0-18.08-6.63-30.76-3.39c-5.5,1.4-5.64,2.82-23.84,10.56
	c-9.14,3.89-8.06,3.09-11.92,4.9c-7.63,3.59-19.2,9.03-28.07,19.61c-4.55,5.43-5.09,8.27-7.92,12.83c-1.37,2.21-2.5,3.65-4.77,6.41
	c-2.82,3.44-13.32,15.9-14.33,15.19c-1.34-0.94,10.38-27.18,34.72-48.57c18.5-16.26,36.4-22.79,44.89-25.78
	c8.83-3.11,27.49-9.47,40.09-4.02c12.03,5.2,13.61,7.58,13.61,7.58c1.31,1.02,3.46,2.85,6.87,3.8c2.06,0.58,2.64,0.29,4.42,0.97
	c3.48,1.33,5.44,4.01,5.98,4.78C255.32,94.27,257.35,99.49,255.68,101.05z"/>
<path class="st1" d="M255.74,106.19c0.29,0.91-1.21,2.2-2.28,3.13c-1.16,1.01-2.3,1.52-2.92,1.78c-3.8,1.57-7.95,1.7-8.52,1.71
	c-5.5,0.13-7.95-0.44-14.04-0.75c-4.28-0.22-4.53-0.04-8.27-0.19c-11.25-0.45-13.33-2.27-20.76-2.45
	c-7.73-0.19-13.67,1.58-17.11,2.64c-3.14,0.96-8.35,3.8-18.65,9.43c-4.52,2.47-14.45,7.95-20.38,13.2
	c-1.73,1.53-3.15,2.82-4.84,4.84c-2.67,3.18-3.14,4.99-8.04,8.93c-10.87,8.73-16.14,5.66-21.73,13.39
	c-2.35,3.25-2.37,5.08-8.02,13.95c-0.79,1.24-4.61,7.23-5.15,6.94c-0.34-0.18,1-2.71,2.42-7.2c1.61-5.08,1.29-6.27,2.43-9.93
	c0.17-0.54,1.87-5.82,5.43-10.55c4.24-5.64,8.02-5.61,12.31-10c6.48-6.64,5.74-11,10.19-18.29c8.62-14.11,24.83-19.75,27.69-20.75
	c10.69-3.72,18.72-6.74,28.65-8.86c8.63-1.84,12.32-1.9,14.04-1.89c4.29,0.04,6.81,0.63,21.92,4.71
	c14.98,4.05,18.24,5.06,20.73,5.14c0.23,0.01,0.74-0.03,1.57-0.05C250.42,104.87,255.28,104.74,255.74,106.19z"/>
<path class="st0" d="M464.63,242.75c1.52,1.25,4.01,3.27,7.12,5.7c13.31,10.39,17.01,11.85,25.91,19.49
	c5.15,4.43,8.82,9.08,13.53,14.54c0.99,1.15,2.22,2.62,3.61,4.57c1.41,1.99,2.38,3.61,2.91,4.54c5.08,8.74,8.69,18.23,10.5,17.81
	c0.6-0.14,0.83-1.7,1.3-4.81c0.36-2.41,0.62-4.15,0.35-6.17c-0.49-3.65-2.48-6.4-4.06-8.1"/>
<path class="st0" d="M470.18,224.34c4.42,8.98,9.24,15.27,12.75,19.3c5.79,6.64,16.51,15.97,22.5,20.93c1.81,1.5,5.26,4.3,8.54,8.8
	c1.55,2.13,3.35,5.03,3.77,5.72c0.69,1.12,1.21,2,1.63,2.73c1.21,2.11,2.07,3.58,2.22,3.83c0.93,1.61,3.01,4.26,8.17,8.72"/>
<path class="st0" d="M522.73,300.02"/>
<path class="st1" d="M463.61,272.96c-1.91,0.86,6.46,21.34,9.89,29.72c4.15,10.16,6.17,13.67,9.61,17.35
	c1.32,1.41,6.16,6.37,14.23,9.81c7.17,3.05,10.43,1.52,13.75,5c4.39,4.6,2.93,11.31,4.92,11.49c1.65,0.15,3.48-4.43,4.1-7.2
	c0.76-3.39,0.16-6.09-0.06-6.95c-0.57-2.22-1.52-3.75-2.31-5c-1.61-2.57-3.35-4.17-3.75-4.53c-3.74-3.38-8.6-5.14-8.6-5.14l0,0
	c-4.55-2.99-4.34-4.39-10.26-9.66c-5.14-4.58-5.01-3.26-9.02-6.97c-3.07-2.84-4.91-4.96-12.56-15.27
	C465.04,274.16,464.14,272.72,463.61,272.96z"/>
<path class="st1" d="M509.37,346.79c-4.18-3.37-4.37-4.7-7.36-7.24c-3.79-3.22-4.47-1.48-10.8-5.77c-5.33-3.61-8.57-5.8-10.8-9.85
	c-1.29-2.34-1.27-3.53-3.24-6.45c-1.14-1.69-2.2-2.85-2.88-5.09c-0.31-1.02-0.23-1.25-0.72-2.89c-0.37-1.25-0.53-1.88-1.44-4.08
	c-1.26-3.04-1.4-7.89-1.22-7.92c0.1-0.01,1.86,9.99,5.36,29.99c1.4,7.98,2.1,11.98,2.16,12.57c1.34,12.39,0.34,25.33-0.21,32.44
	c-0.02,0.3,0.04-0.5,0,10.53c-0.02,4.81-0.04,6.12,0.95,6.78c1.88,1.24,5.04-1.4,12.73-4.73c8.19-3.54,8.08-2.04,10.56-3.92
	c0,0,0.77-0.58,1.43-1.35c3.51-4.11,8.07-17.54,8.07-17.54c2.48-7.29,3.4-9.2,2.22-11.42C513.39,349.37,512.5,349.32,509.37,346.79z
	"/>
<path class="st1" d="M521.68,332.59"/>
<path class="st0" d="M153.96,258.15c-2.14,3.64-5.35,9.48-8.46,17.02c-4.4,10.67-3.86,13.27-8.08,22.77
	c-5.23,11.81-10.98,18.86-12.69,20.93c-1.73,2.09-6.29,7.57-12.11,11.32c-2.73,1.76-11.46,7.32-16.15,4.24
	c-1.19-0.78-2.64-2.46-3.46-4.53c-0.25-0.62-0.84-2.16-0.72-4.07c0.23-3.69,2.96-6.23,3.8-6.96c3.79-3.34,6.71-2.56,8.53-5.8
	c0.18-0.31,0.61-1.26,1.47-3.15c0.86-1.89,1.36-3.1,1.72-3.87c2.63-5.62,7.3-8.69,9.61-10.56c5.71-4.6,7.5-10.25,13.46-24.14
	c9.75-22.72,14.74-34.34,23.26-46.96c0.97-1.44,6.03-7.75,16.15-20.37c14.2-17.71,18.62-22.7,25.38-28.29
	c2.33-1.93,4.13-3.26,16.15-11.32c12.19-8.18,22.22-14.77,29.05-19.24"/>
<path class="st1" d="M224.72,180.08c-12.22,5.64-17.82,12.48-20.67,17.73c-3.67,6.76-3.72,12.58-9.58,19.11
	c-4.27,4.75-9.28,7.28-12.77,8.66c-3.21,1.16-6.19,1.6-9.29,4.16c-2.47,2.03-3.52,4.18-4.26,5.54c-4.61,8.55-9.5,11.34-16.64,23.91
	c-5.38,9.46-8.23,14.34-8.27,21.5c-0.04,5.91,1.79,11.91,2.82,11.86c0.68-0.03,0.74-2.71,2.05-7.9c0.8-3.19,1.69-5.62,3.46-10.47
	c2.34-6.39,3.66-10,5.51-13.71c0.67-1.34,11.68-23.06,21.43-21.85c1.14,0.14,4.03,0.87,6.98-0.5c1.92-0.89,2.99-2.26,3.38-2.73
	c5.81-7.08,18.36-9.15,24.4-19.46c1.75-2.99,2.09-5.2,2.93-8.67c6.42-26.46,20.39-33.58,26.1-54.01c0.48-1.72,1.5-5.62,4.06-10.34
	c3.15-5.78,7.02-9.85,9.9-12.45"/>
<path class="st1" d="M257.79,114.44c1.62,3.42,2.4,5.14,2.32,5.51c-0.7,3.39-21.81-1.73-42.79,2.88
	c-7.58,1.67-15.05,5.35-29.99,12.73c-10,4.94-17.36,8.89-26.24,15.56c-8.42,6.32-6.44,6.98-14.71,13.3
	c-10.2,7.8-12.57,6.29-27.11,15.56c-17.04,10.87-20.08,16.95-21.05,19.52c-2.14,5.65-3.46,10.18-3.46,10.18
	c-1.56,5.37-1.81,7.67-2.31,7.64c-0.89-0.05-1.76-7.63-0.58-15.37c0.7-4.59,1.95-8.11,2.69-10c2.99-7.59,7.55-12.64,16.54-22.44
	c5.42-5.91,8.13-8.87,11.92-11.69c5.53-4.12,9.67-6.41,13.07-8.3c18.05-10.02,17.76-15.97,35.38-25.55
	c4.25-2.31,10.57-5.7,19.61-8.2c9.82-2.72,18.07-3.06,22.3-3.21c10.52-0.37,9.69,1.32,16.54,0.57c13.39-1.47,21-8.25,24.74-4.88
	C255.02,108.58,255.94,110.54,257.79,114.44z"/>
<path class="st0" d="M230.85,133.97c-19.9,5.69-35.88,13.17-48.05,20.08c-4.99,2.83-1.48-0.06-22.69,14.71
	c-21.7,15.11-32.55,22.67-39.61,32.82c-4.42,6.36-0.62,3.04-13.46,29.42c-6.65,13.66-8.92,21.55-9.92,26.28
	c-0.41,1.94-0.64,3.39-0.84,4.65c-1.23,7.64-2.02,17.16-1.33,28.3"/>
<path class="st1" d="M251.62,139.52c-11.01,8.31-16.65,5.65-34.58,11.73c-15.66,5.32-25.78,12.75-35.65,19.99
	c-14.95,10.98-23.6,21.33-31.92,31.29c-6.56,7.86-15.74,21.24-18.46,28.22c-0.29,0.74-1.3,3.45-3.39,6.66
	c-1.44,2.21-2.32,3-4.04,5.09c-3.61,4.38-5.87,8.3-9.23,14.14c-1.23,2.13-1.38,2.51-2.97,5.38c-6.2,11.25-7.44,11.97-9.34,15.93
	c-6.07,12.64-2.72,24.43-6.95,25.52c-0.48,0.12-1.97,0.35-3.05-0.44c-1.3-0.95-1.33-2.88-1.35-3.58c-0.22-8.7-2.81-10.25-1.54-18.29
	c1.08-6.81,3.12-6.87,6.96-20.42c0.87-3.06,0.64-3.13,1.43-5.38c2.16-6.17,8.06-18.92,8.76-20.44l0,0
	c4.38-13.28,7.59-19.86,9.79-23.98c3.93-7.37,7.55-12.31,10.01-15.41c3.5-4.4,6.43-7.29,7.27-8.1c4.52-4.37,8.55-7.22,10.45-8.55
	c15.78-11.01,27.68-17.42,27.68-17.42c19.54-10.52,22.95-13.99,30.96-18.86c4.62-2.8,8.01-4.45,10.75-5.86
	c23.34-12.01,26.66-16.68,36.39-16.73c1.41-0.01,10.95-0.06,12.69,4.24C264.5,129.66,252.97,138.5,251.62,139.52z"/>
<path class="st3" d="M217.03,182.81"/>
<path class="st1" d="M103.63,336.03c-2.25,3.27-1.91,7.46-1.54,12.07c0.31,3.84,1.39,5.17,0.96,8.3c-0.05,0.4-0.29,1.96,0,3.96
	c0.22,1.54,0.39,2.73,1.15,3.21c1.45,0.9,3.43-1.79,6.68-2.73c6.05-1.76,13.14,3.56,16.58,6.08c4.51,3.3,5.33,5.67,6.77,5.25
	c3.02-0.88-0.79-11.24,3.03-26.32c0.85-3.34,2.06-6.98,4-15.08c1.06-4.42,1.53-6.82,1.87-8.74c0.76-4.33,1.11-7.66,1.49-11.82
	c0.88-9.78,1.22-15.35,1.42-17.64c1.63-18.62,12.46-31.17,11.27-31.86c-1.03-0.6-9.85,8.46-14.28,20.93
	c-1.32,3.74-1.7,6.23-4.18,12.59c-1.23,3.16-2.87,7.29-5.62,12.31c-2.43,4.42-5.55,9.99-11.25,15.84
	c-2.89,2.96-5.87,5.95-10.67,8.77C106.96,333.69,105.28,333.64,103.63,336.03z"/>
<path class="st1" d="M238.4,145.87c-1.18-1.85-27.9,9.23-50.5,29.3c-5.15,4.58-13.33,11.93-21.34,23.48
	c-4.77,6.88-5.85,12.25-12.69,20.93c-5.32,6.76-5.81,5.45-11.72,12.87c-5.96,7.49-6.14,9.67-14.52,21.36
	c-7.41,10.34-7.21,8.53-8.36,11.32c-3.01,7.21-5.13,20.96-8.08,24.05c-2.99,3.13-4.07,2.39-8.94,7.07
	c-5.77,5.55-9.4,8.57-10.09,13.58c-0.66,4.82,1.62,8.51,2.31,9.62c1.4,2.26,2.43,2.5,2.88,2.55c1.78,0.17,3.34-1.93,4.15-3.07
	c4.93-6.91,5.87-11.97,9.4-16.45c4.11-5.23,5.66-4.41,9.81-9.9c3.58-4.74,3.36-6.57,6.89-13.43c4.98-9.69,6.5-8.12,13.01-19.67
	c2.54-4.5,7.84-14.56,8.08-14.99c2.45-4.64,2.86-5.52,4.04-7.07c4.59-6.06,8.27-5.87,12.69-10.18c4.53-4.42,3.11-7.01,8.65-19.52
	c0.73-1.65,4.04-9.11,7.79-14.71c6.33-9.45,13.75-13.37,23.07-19.52C221.6,162.46,239.46,147.54,238.4,145.87z"/>
<path class="st0" d="M97.82,345.47"/>
<path class="st4" d="M135.31,920.22"/>
</svg>
